<svg xmlns="http://www.w3.org/2000/svg" xmlns:xlink="http://www.w3.org/1999/xlink" width="500" zoomAndPan="magnify" viewBox="0 0 375 284.999983" height="380" preserveAspectRatio="xMidYMid meet" version="1.0"><defs><g/><clipPath id="5d19191a22"><rect x="0" width="375" y="0" height="285"/></clipPath></defs><g transform="matrix(1, 0, 0, 1, 0, 0.000000000000035451)"><g clip-path="url(#5d19191a22)"><g fill="#6cace3" fill-opacity="0.4"><g transform="translate(-13.510235, 274.089023)"><g><path d="M 170.328125 -261.6875 L 170.328125 -209.34375 L 78.65625 -209.34375 L 78.65625 -157.328125 L 163.359375 -157.328125 L 163.359375 -104.984375 L 78.65625 -104.984375 L 78.65625 0 L 19.03125 0 L 19.03125 -261.6875 Z M 170.328125 -261.6875 "/></g></g></g><g fill="#6cace3" fill-opacity="0.4"><g transform="translate(166.337297, 274.089023)"><g><path d="M 115.453125 -266.4375 C 129.617188 -266.4375 143.46875 -264.375 157 -260.25 C 170.539062 -256.125 180.585938 -252.054688 187.140625 -248.046875 L 196.65625 -241.703125 L 172.546875 -194.125 C 170.648438 -195.382812 168.007812 -197.019531 164.625 -199.03125 C 161.238281 -201.039062 154.894531 -203.738281 145.59375 -207.125 C 136.289062 -210.507812 127.617188 -212.203125 119.578125 -212.203125 C 109.640625 -212.203125 101.972656 -210.085938 96.578125 -205.859375 C 91.191406 -201.628906 88.5 -195.921875 88.5 -188.734375 C 88.5 -185.128906 89.765625 -181.796875 92.296875 -178.734375 C 94.835938 -175.671875 99.171875 -172.394531 105.296875 -168.90625 C 111.429688 -165.414062 116.828125 -162.613281 121.484375 -160.5 C 126.140625 -158.382812 133.328125 -155.210938 143.046875 -150.984375 C 159.960938 -143.796875 174.394531 -134.015625 186.34375 -121.640625 C 198.289062 -109.273438 204.265625 -95.265625 204.265625 -79.609375 C 204.265625 -64.597656 201.566406 -51.488281 196.171875 -40.28125 C 190.785156 -29.070312 183.382812 -20.296875 173.96875 -13.953125 C 164.5625 -7.609375 154.148438 -2.90625 142.734375 0.15625 C 131.316406 3.226562 118.945312 4.765625 105.625 4.765625 C 94.207031 4.765625 83 3.597656 72 1.265625 C 61.007812 -1.054688 51.8125 -3.960938 44.40625 -7.453125 C 37.007812 -10.941406 30.347656 -14.378906 24.421875 -17.765625 C 18.503906 -21.148438 14.171875 -24.003906 11.421875 -26.328125 L 7.296875 -29.8125 L 37.109375 -79.9375 C 39.648438 -77.820312 43.140625 -75.125 47.578125 -71.84375 C 52.015625 -68.5625 59.890625 -64.171875 71.203125 -58.671875 C 82.515625 -53.179688 92.507812 -50.4375 101.1875 -50.4375 C 126.34375 -50.4375 138.921875 -59 138.921875 -76.125 C 138.921875 -79.71875 138.019531 -83.046875 136.21875 -86.109375 C 134.425781 -89.179688 131.253906 -92.25 126.703125 -95.3125 C 122.160156 -98.382812 118.144531 -100.816406 114.65625 -102.609375 C 111.175781 -104.410156 105.46875 -107.160156 97.53125 -110.859375 C 89.601562 -114.554688 83.738281 -117.359375 79.9375 -119.265625 C 64.070312 -127.085938 51.804688 -136.863281 43.140625 -148.59375 C 34.472656 -160.332031 30.140625 -172.96875 30.140625 -186.5 C 30.140625 -209.976562 38.804688 -229.171875 56.140625 -244.078125 C 73.484375 -258.984375 93.253906 -266.4375 115.453125 -266.4375 Z M 115.453125 -266.4375 "/></g></g></g><g fill="#257b36" fill-opacity="1"><g transform="translate(-13.510235, 274.089023)"><g><path d="M 170.328125 -261.6875 L 170.328125 -209.34375 L 78.65625 -209.34375 L 78.65625 -157.328125 L 163.359375 -157.328125 L 163.359375 -104.984375 L 78.65625 -104.984375 L 78.65625 0 L 19.03125 0 L 19.03125 -261.6875 Z M 170.328125 -261.6875 "/></g></g></g><g fill="#257b36" fill-opacity="1"><g transform="translate(166.337297, 274.089023)"><g><path d="M 115.453125 -266.4375 C 129.617188 -266.4375 143.46875 -264.375 157 -260.25 C 170.539062 -256.125 180.585938 -252.054688 187.140625 -248.046875 L 196.65625 -241.703125 L 172.546875 -194.125 C 170.648438 -195.382812 168.007812 -197.019531 164.625 -199.03125 C 161.238281 -201.039062 154.894531 -203.738281 145.59375 -207.125 C 136.289062 -210.507812 127.617188 -212.203125 119.578125 -212.203125 C 109.640625 -212.203125 101.972656 -210.085938 96.578125 -205.859375 C 91.191406 -201.628906 88.5 -195.921875 88.5 -188.734375 C 88.5 -185.128906 89.765625 -181.796875 92.296875 -178.734375 C 94.835938 -175.671875 99.171875 -172.394531 105.296875 -168.90625 C 111.429688 -165.414062 116.828125 -162.613281 121.484375 -160.5 C 126.140625 -158.382812 133.328125 -155.210938 143.046875 -150.984375 C 159.960938 -143.796875 174.394531 -134.015625 186.34375 -121.640625 C 198.289062 -109.273438 204.265625 -95.265625 204.265625 -79.609375 C 204.265625 -64.597656 201.566406 -51.488281 196.171875 -40.28125 C 190.785156 -29.070312 183.382812 -20.296875 173.96875 -13.953125 C 164.5625 -7.609375 154.148438 -2.90625 142.734375 0.15625 C 131.316406 3.226562 118.945312 4.765625 105.625 4.765625 C 94.207031 4.765625 83 3.597656 72 1.265625 C 61.007812 -1.054688 51.8125 -3.960938 44.40625 -7.453125 C 37.007812 -10.941406 30.347656 -14.378906 24.421875 -17.765625 C 18.503906 -21.148438 14.171875 -24.003906 11.421875 -26.328125 L 7.296875 -29.8125 L 37.109375 -79.9375 C 39.648438 -77.820312 43.140625 -75.125 47.578125 -71.84375 C 52.015625 -68.5625 59.890625 -64.171875 71.203125 -58.671875 C 82.515625 -53.179688 92.507812 -50.4375 101.1875 -50.4375 C 126.34375 -50.4375 138.921875 -59 138.921875 -76.125 C 138.921875 -79.71875 138.019531 -83.046875 136.21875 -86.109375 C 134.425781 -89.179688 131.253906 -92.25 126.703125 -95.3125 C 122.160156 -98.382812 118.144531 -100.816406 114.65625 -102.609375 C 111.175781 -104.410156 105.46875 -107.160156 97.53125 -110.859375 C 89.601562 -114.554688 83.738281 -117.359375 79.9375 -119.265625 C 64.070312 -127.085938 51.804688 -136.863281 43.140625 -148.59375 C 34.472656 -160.332031 30.140625 -172.96875 30.140625 -186.5 C 30.140625 -209.976562 38.804688 -229.171875 56.140625 -244.078125 C 73.484375 -258.984375 93.253906 -266.4375 115.453125 -266.4375 Z M 115.453125 -266.4375 "/></g></g></g></g></g></svg>