<svg xmlns="http://www.w3.org/2000/svg" xmlns:xlink="http://www.w3.org/1999/xlink" width="440" zoomAndPan="magnify" viewBox="0 0 330 97.5" height="130" preserveAspectRatio="xMidYMid meet" version="1.0"><defs><g/><clipPath id="764c8cb8b0"><rect x="0" width="327" y="0" height="91"/></clipPath><clipPath id="0207803b6a"><path d="M 0.105469 3 L 8 3 L 8 12 L 0.105469 12 Z M 0.105469 3 " clip-rule="nonzero"/></clipPath><clipPath id="098f402ed7"><rect x="0" width="280" y="0" height="17"/></clipPath></defs><g transform="matrix(1, 0, 0, 1, 2, 3)"><g clip-path="url(#764c8cb8b0)"><g fill="#6cace3" fill-opacity="0.4"><g transform="translate(1.299214, 65.35887)"><g><path d="M 38.9375 -59.828125 L 38.9375 -47.859375 L 17.984375 -47.859375 L 17.984375 -35.96875 L 37.34375 -35.96875 L 37.34375 -24 L 17.984375 -24 L 17.984375 0 L 4.34375 0 L 4.34375 -59.828125 Z M 38.9375 -59.828125 "/></g></g></g><g fill="#6cace3" fill-opacity="0.4"><g transform="translate(42.409646, 65.35887)"><g><path d="M 4.34375 0 L 4.34375 -62.359375 L 17.1875 -62.359375 L 17.1875 0 Z M 4.34375 0 "/></g></g></g><g fill="#6cace3" fill-opacity="0.4"><g transform="translate(63.94367, 65.35887)"><g><path d="M 16.46875 -37.203125 L 16.46875 -19.5 C 16.46875 -15.832031 17.019531 -13.222656 18.125 -11.671875 C 19.238281 -10.128906 21.125 -9.359375 23.78125 -9.359375 C 26.445312 -9.359375 28.332031 -10.128906 29.4375 -11.671875 C 30.550781 -13.222656 31.109375 -15.832031 31.109375 -19.5 L 31.109375 -37.203125 L 43.9375 -37.203125 L 43.9375 -16.390625 C 43.9375 -10.203125 42.328125 -5.738281 39.109375 -3 C 35.898438 -0.269531 30.789062 1.09375 23.78125 1.09375 C 16.769531 1.09375 11.65625 -0.269531 8.4375 -3 C 5.226562 -5.738281 3.625 -10.203125 3.625 -16.390625 L 3.625 -37.203125 Z M 16.46875 -37.203125 "/></g></g></g><g fill="#6cace3" fill-opacity="0.4"><g transform="translate(111.507068, 65.35887)"><g><path d="M 47.421875 0 L 31.90625 0 L 23.71875 -10.515625 L 15.515625 0 L 0 0 L 15.875 -19.4375 L 2.25 -37.203125 L 17.265625 -37.203125 L 23.71875 -28.578125 L 30.171875 -37.203125 L 45.171875 -37.203125 L 31.546875 -19.4375 Z M 47.421875 0 "/></g></g></g><g fill="#6cace3" fill-opacity="0.4"><g transform="translate(158.925462, 65.35887)"><g><path d="M 7.859375 -4.421875 C 3.734375 -8.097656 1.671875 -12.8125 1.671875 -18.5625 C 1.671875 -24.3125 3.820312 -29.035156 8.125 -32.734375 C 12.425781 -36.429688 17.742188 -38.28125 24.078125 -38.28125 C 30.316406 -38.28125 35.570312 -36.421875 39.84375 -32.703125 C 44.125 -28.984375 46.265625 -24.269531 46.265625 -18.5625 C 46.265625 -12.851562 44.171875 -8.148438 39.984375 -4.453125 C 35.804688 -0.753906 30.503906 1.09375 24.078125 1.09375 C 17.398438 1.09375 11.992188 -0.742188 7.859375 -4.421875 Z M 17.796875 -24.875 C 16.128906 -23.226562 15.296875 -21.125 15.296875 -18.5625 C 15.296875 -16 16.09375 -13.90625 17.6875 -12.28125 C 19.289062 -10.664062 21.394531 -9.859375 24 -9.859375 C 26.519531 -9.859375 28.585938 -10.679688 30.203125 -12.328125 C 31.816406 -13.972656 32.625 -16.050781 32.625 -18.5625 C 32.625 -21.125 31.789062 -23.226562 30.125 -24.875 C 28.457031 -26.519531 26.414062 -27.34375 24 -27.34375 C 21.53125 -27.34375 19.460938 -26.519531 17.796875 -24.875 Z M 17.796875 -24.875 "/></g></g></g><g fill="#6cace3" fill-opacity="0.4"><g transform="translate(206.851373, 65.35887)"><g><path d="M 26.390625 -60.90625 C 29.628906 -60.90625 32.796875 -60.429688 35.890625 -59.484375 C 38.984375 -58.546875 41.28125 -57.617188 42.78125 -56.703125 L 44.953125 -55.25 L 39.453125 -44.375 C 39.015625 -44.664062 38.40625 -45.039062 37.625 -45.5 C 36.851562 -45.957031 35.40625 -46.570312 33.28125 -47.34375 C 31.15625 -48.125 29.175781 -48.515625 27.34375 -48.515625 C 25.070312 -48.515625 23.316406 -48.03125 22.078125 -47.0625 C 20.847656 -46.09375 20.234375 -44.785156 20.234375 -43.140625 C 20.234375 -42.328125 20.519531 -41.566406 21.09375 -40.859375 C 21.675781 -40.160156 22.664062 -39.410156 24.0625 -38.609375 C 25.46875 -37.816406 26.703125 -37.175781 27.765625 -36.6875 C 28.835938 -36.207031 30.484375 -35.484375 32.703125 -34.515625 C 36.566406 -32.867188 39.863281 -30.628906 42.59375 -27.796875 C 45.332031 -24.972656 46.703125 -21.773438 46.703125 -18.203125 C 46.703125 -14.765625 46.082031 -11.765625 44.84375 -9.203125 C 43.613281 -6.640625 41.921875 -4.632812 39.765625 -3.1875 C 37.617188 -1.738281 35.238281 -0.664062 32.625 0.03125 C 30.019531 0.738281 27.191406 1.09375 24.140625 1.09375 C 21.535156 1.09375 18.972656 0.828125 16.453125 0.296875 C 13.941406 -0.234375 11.835938 -0.898438 10.140625 -1.703125 C 8.453125 -2.503906 6.929688 -3.289062 5.578125 -4.0625 C 4.222656 -4.832031 3.234375 -5.484375 2.609375 -6.015625 L 1.671875 -6.8125 L 8.484375 -18.28125 C 9.066406 -17.789062 9.863281 -17.171875 10.875 -16.421875 C 11.894531 -15.671875 13.695312 -14.664062 16.28125 -13.40625 C 18.863281 -12.15625 21.144531 -11.53125 23.125 -11.53125 C 28.882812 -11.53125 31.765625 -13.488281 31.765625 -17.40625 C 31.765625 -18.226562 31.554688 -18.988281 31.140625 -19.6875 C 30.734375 -20.382812 30.007812 -21.082031 28.96875 -21.78125 C 27.925781 -22.488281 27.003906 -23.046875 26.203125 -23.453125 C 25.410156 -23.867188 24.109375 -24.5 22.296875 -25.34375 C 20.484375 -26.1875 19.144531 -26.828125 18.28125 -27.265625 C 14.644531 -29.054688 11.835938 -31.289062 9.859375 -33.96875 C 7.878906 -36.65625 6.890625 -39.546875 6.890625 -42.640625 C 6.890625 -48.003906 8.867188 -52.390625 12.828125 -55.796875 C 16.796875 -59.203125 21.316406 -60.90625 26.390625 -60.90625 Z M 26.390625 -60.90625 "/></g></g></g><g fill="#6cace3" fill-opacity="0.4"><g transform="translate(255.57486, 65.35887)"><g><path d="M 16.46875 -37.203125 L 16.46875 -19.5 C 16.46875 -15.832031 17.019531 -13.222656 18.125 -11.671875 C 19.238281 -10.128906 21.125 -9.359375 23.78125 -9.359375 C 26.445312 -9.359375 28.332031 -10.128906 29.4375 -11.671875 C 30.550781 -13.222656 31.109375 -15.832031 31.109375 -19.5 L 31.109375 -37.203125 L 43.9375 -37.203125 L 43.9375 -16.390625 C 43.9375 -10.203125 42.328125 -5.738281 39.109375 -3 C 35.898438 -0.269531 30.789062 1.09375 23.78125 1.09375 C 16.769531 1.09375 11.65625 -0.269531 8.4375 -3 C 5.226562 -5.738281 3.625 -10.203125 3.625 -16.390625 L 3.625 -37.203125 Z M 16.46875 -37.203125 "/></g></g></g><g fill="#6cace3" fill-opacity="0.4"><g transform="translate(303.138259, 65.35887)"><g><path d="M 4.34375 0 L 4.34375 -62.359375 L 17.1875 -62.359375 L 17.1875 0 Z M 4.34375 0 "/></g></g></g><g fill="#257b36" fill-opacity="1"><g transform="translate(1.299214, 65.35887)"><g><path d="M 38.9375 -59.828125 L 38.9375 -47.859375 L 17.984375 -47.859375 L 17.984375 -35.96875 L 37.34375 -35.96875 L 37.34375 -24 L 17.984375 -24 L 17.984375 0 L 4.34375 0 L 4.34375 -59.828125 Z M 38.9375 -59.828125 "/></g></g></g><g fill="#257b36" fill-opacity="1"><g transform="translate(42.409646, 65.35887)"><g><path d="M 4.34375 0 L 4.34375 -62.359375 L 17.1875 -62.359375 L 17.1875 0 Z M 4.34375 0 "/></g></g></g><g fill="#257b36" fill-opacity="1"><g transform="translate(63.94367, 65.35887)"><g><path d="M 16.46875 -37.203125 L 16.46875 -19.5 C 16.46875 -15.832031 17.019531 -13.222656 18.125 -11.671875 C 19.238281 -10.128906 21.125 -9.359375 23.78125 -9.359375 C 26.445312 -9.359375 28.332031 -10.128906 29.4375 -11.671875 C 30.550781 -13.222656 31.109375 -15.832031 31.109375 -19.5 L 31.109375 -37.203125 L 43.9375 -37.203125 L 43.9375 -16.390625 C 43.9375 -10.203125 42.328125 -5.738281 39.109375 -3 C 35.898438 -0.269531 30.789062 1.09375 23.78125 1.09375 C 16.769531 1.09375 11.65625 -0.269531 8.4375 -3 C 5.226562 -5.738281 3.625 -10.203125 3.625 -16.390625 L 3.625 -37.203125 Z M 16.46875 -37.203125 "/></g></g></g><g fill="#257b36" fill-opacity="1"><g transform="translate(111.507068, 65.35887)"><g><path d="M 47.421875 0 L 31.90625 0 L 23.71875 -10.515625 L 15.515625 0 L 0 0 L 15.875 -19.4375 L 2.25 -37.203125 L 17.265625 -37.203125 L 23.71875 -28.578125 L 30.171875 -37.203125 L 45.171875 -37.203125 L 31.546875 -19.4375 Z M 47.421875 0 "/></g></g></g><g fill="#257b36" fill-opacity="1"><g transform="translate(158.925462, 65.35887)"><g><path d="M 7.859375 -4.421875 C 3.734375 -8.097656 1.671875 -12.8125 1.671875 -18.5625 C 1.671875 -24.3125 3.820312 -29.035156 8.125 -32.734375 C 12.425781 -36.429688 17.742188 -38.28125 24.078125 -38.28125 C 30.316406 -38.28125 35.570312 -36.421875 39.84375 -32.703125 C 44.125 -28.984375 46.265625 -24.269531 46.265625 -18.5625 C 46.265625 -12.851562 44.171875 -8.148438 39.984375 -4.453125 C 35.804688 -0.753906 30.503906 1.09375 24.078125 1.09375 C 17.398438 1.09375 11.992188 -0.742188 7.859375 -4.421875 Z M 17.796875 -24.875 C 16.128906 -23.226562 15.296875 -21.125 15.296875 -18.5625 C 15.296875 -16 16.09375 -13.90625 17.6875 -12.28125 C 19.289062 -10.664062 21.394531 -9.859375 24 -9.859375 C 26.519531 -9.859375 28.585938 -10.679688 30.203125 -12.328125 C 31.816406 -13.972656 32.625 -16.050781 32.625 -18.5625 C 32.625 -21.125 31.789062 -23.226562 30.125 -24.875 C 28.457031 -26.519531 26.414062 -27.34375 24 -27.34375 C 21.53125 -27.34375 19.460938 -26.519531 17.796875 -24.875 Z M 17.796875 -24.875 "/></g></g></g><g fill="#257b36" fill-opacity="1"><g transform="translate(206.851373, 65.35887)"><g><path d="M 26.390625 -60.90625 C 29.628906 -60.90625 32.796875 -60.429688 35.890625 -59.484375 C 38.984375 -58.546875 41.28125 -57.617188 42.78125 -56.703125 L 44.953125 -55.25 L 39.453125 -44.375 C 39.015625 -44.664062 38.40625 -45.039062 37.625 -45.5 C 36.851562 -45.957031 35.40625 -46.570312 33.28125 -47.34375 C 31.15625 -48.125 29.175781 -48.515625 27.34375 -48.515625 C 25.070312 -48.515625 23.316406 -48.03125 22.078125 -47.0625 C 20.847656 -46.09375 20.234375 -44.785156 20.234375 -43.140625 C 20.234375 -42.328125 20.519531 -41.566406 21.09375 -40.859375 C 21.675781 -40.160156 22.664062 -39.410156 24.0625 -38.609375 C 25.46875 -37.816406 26.703125 -37.175781 27.765625 -36.6875 C 28.835938 -36.207031 30.484375 -35.484375 32.703125 -34.515625 C 36.566406 -32.867188 39.863281 -30.628906 42.59375 -27.796875 C 45.332031 -24.972656 46.703125 -21.773438 46.703125 -18.203125 C 46.703125 -14.765625 46.082031 -11.765625 44.84375 -9.203125 C 43.613281 -6.640625 41.921875 -4.632812 39.765625 -3.1875 C 37.617188 -1.738281 35.238281 -0.664062 32.625 0.03125 C 30.019531 0.738281 27.191406 1.09375 24.140625 1.09375 C 21.535156 1.09375 18.972656 0.828125 16.453125 0.296875 C 13.941406 -0.234375 11.835938 -0.898438 10.140625 -1.703125 C 8.453125 -2.503906 6.929688 -3.289062 5.578125 -4.0625 C 4.222656 -4.832031 3.234375 -5.484375 2.609375 -6.015625 L 1.671875 -6.8125 L 8.484375 -18.28125 C 9.066406 -17.789062 9.863281 -17.171875 10.875 -16.421875 C 11.894531 -15.671875 13.695312 -14.664062 16.28125 -13.40625 C 18.863281 -12.15625 21.144531 -11.53125 23.125 -11.53125 C 28.882812 -11.53125 31.765625 -13.488281 31.765625 -17.40625 C 31.765625 -18.226562 31.554688 -18.988281 31.140625 -19.6875 C 30.734375 -20.382812 30.007812 -21.082031 28.96875 -21.78125 C 27.925781 -22.488281 27.003906 -23.046875 26.203125 -23.453125 C 25.410156 -23.867188 24.109375 -24.5 22.296875 -25.34375 C 20.484375 -26.1875 19.144531 -26.828125 18.28125 -27.265625 C 14.644531 -29.054688 11.835938 -31.289062 9.859375 -33.96875 C 7.878906 -36.65625 6.890625 -39.546875 6.890625 -42.640625 C 6.890625 -48.003906 8.867188 -52.390625 12.828125 -55.796875 C 16.796875 -59.203125 21.316406 -60.90625 26.390625 -60.90625 Z M 26.390625 -60.90625 "/></g></g></g><g fill="#257b36" fill-opacity="1"><g transform="translate(255.57486, 65.35887)"><g><path d="M 16.46875 -37.203125 L 16.46875 -19.5 C 16.46875 -15.832031 17.019531 -13.222656 18.125 -11.671875 C 19.238281 -10.128906 21.125 -9.359375 23.78125 -9.359375 C 26.445312 -9.359375 28.332031 -10.128906 29.4375 -11.671875 C 30.550781 -13.222656 31.109375 -15.832031 31.109375 -19.5 L 31.109375 -37.203125 L 43.9375 -37.203125 L 43.9375 -16.390625 C 43.9375 -10.203125 42.328125 -5.738281 39.109375 -3 C 35.898438 -0.269531 30.789062 1.09375 23.78125 1.09375 C 16.769531 1.09375 11.65625 -0.269531 8.4375 -3 C 5.226562 -5.738281 3.625 -10.203125 3.625 -16.390625 L 3.625 -37.203125 Z M 16.46875 -37.203125 "/></g></g></g><g fill="#257b36" fill-opacity="1"><g transform="translate(303.138259, 65.35887)"><g><path d="M 4.34375 0 L 4.34375 -62.359375 L 17.1875 -62.359375 L 17.1875 0 Z M 4.34375 0 "/></g></g></g></g></g><g transform="matrix(1, 0, 0, 1, 27, 76)"><g clip-path="url(#098f402ed7)"><g clip-path="url(#0207803b6a)"><g fill="#000000" fill-opacity="1"><g transform="translate(0.359752, 11.607599)"><g><path d="M 3.796875 0.15625 C 3.117188 0.15625 2.535156 0.046875 2.046875 -0.171875 C 1.554688 -0.398438 1.175781 -0.71875 0.90625 -1.125 C 0.644531 -1.539062 0.515625 -2.023438 0.515625 -2.578125 L 2.3125 -2.578125 C 2.3125 -2.191406 2.441406 -1.890625 2.703125 -1.671875 C 2.972656 -1.460938 3.332031 -1.359375 3.78125 -1.359375 C 4.164062 -1.359375 4.46875 -1.429688 4.6875 -1.578125 C 4.914062 -1.734375 5.03125 -1.945312 5.03125 -2.21875 C 5.03125 -2.5 4.894531 -2.726562 4.625 -2.90625 C 4.351562 -3.082031 3.9375 -3.234375 3.375 -3.359375 C 2.414062 -3.554688 1.707031 -3.859375 1.25 -4.265625 C 0.800781 -4.679688 0.578125 -5.21875 0.578125 -5.875 C 0.578125 -6.613281 0.847656 -7.195312 1.390625 -7.625 C 1.929688 -8.050781 2.664062 -8.265625 3.59375 -8.265625 C 4.238281 -8.265625 4.796875 -8.15625 5.265625 -7.9375 C 5.734375 -7.71875 6.097656 -7.410156 6.359375 -7.015625 C 6.617188 -6.617188 6.75 -6.144531 6.75 -5.59375 L 4.984375 -5.59375 C 4.984375 -5.957031 4.863281 -6.242188 4.625 -6.453125 C 4.382812 -6.660156 4.050781 -6.765625 3.625 -6.765625 C 3.238281 -6.765625 2.929688 -6.6875 2.703125 -6.53125 C 2.484375 -6.382812 2.375 -6.175781 2.375 -5.90625 C 2.375 -5.65625 2.492188 -5.445312 2.734375 -5.28125 C 2.984375 -5.113281 3.421875 -4.957031 4.046875 -4.8125 C 5.054688 -4.570312 5.785156 -4.25 6.234375 -3.84375 C 6.679688 -3.4375 6.90625 -2.914062 6.90625 -2.28125 C 6.90625 -1.519531 6.628906 -0.921875 6.078125 -0.484375 C 5.523438 -0.0546875 4.765625 0.15625 3.796875 0.15625 Z M 3.796875 0.15625 "/></g></g></g></g><g fill="#000000" fill-opacity="1"><g transform="translate(10.788237, 11.607599)"><g><path d="M 4.8125 0.15625 C 3.96875 0.15625 3.21875 -0.0195312 2.5625 -0.375 C 1.914062 -0.738281 1.410156 -1.234375 1.046875 -1.859375 C 0.679688 -2.492188 0.5 -3.222656 0.5 -4.046875 C 0.5 -4.878906 0.679688 -5.609375 1.046875 -6.234375 C 1.410156 -6.867188 1.914062 -7.363281 2.5625 -7.71875 C 3.21875 -8.082031 3.96875 -8.265625 4.8125 -8.265625 C 5.664062 -8.265625 6.414062 -8.082031 7.0625 -7.71875 C 7.707031 -7.363281 8.210938 -6.867188 8.578125 -6.234375 C 8.953125 -5.609375 9.140625 -4.878906 9.140625 -4.046875 C 9.140625 -3.222656 8.953125 -2.492188 8.578125 -1.859375 C 8.210938 -1.234375 7.707031 -0.738281 7.0625 -0.375 C 6.414062 -0.0195312 5.664062 0.15625 4.8125 0.15625 Z M 2.375 -4.046875 C 2.375 -3.566406 2.476562 -3.140625 2.6875 -2.765625 C 2.894531 -2.398438 3.179688 -2.113281 3.546875 -1.90625 C 3.910156 -1.695312 4.332031 -1.59375 4.8125 -1.59375 C 5.300781 -1.59375 5.726562 -1.695312 6.09375 -1.90625 C 6.457031 -2.113281 6.742188 -2.398438 6.953125 -2.765625 C 7.160156 -3.140625 7.265625 -3.566406 7.265625 -4.046875 C 7.265625 -4.535156 7.160156 -4.960938 6.953125 -5.328125 C 6.742188 -5.703125 6.457031 -5.992188 6.09375 -6.203125 C 5.726562 -6.410156 5.300781 -6.515625 4.8125 -6.515625 C 4.332031 -6.515625 3.910156 -6.410156 3.546875 -6.203125 C 3.179688 -5.992188 2.894531 -5.703125 2.6875 -5.328125 C 2.476562 -4.960938 2.375 -4.535156 2.375 -4.046875 Z M 2.375 -4.046875 "/></g></g></g><g fill="#000000" fill-opacity="1"><g transform="translate(23.438403, 11.607599)"><g><path d="M 0.96875 0 L 0.96875 -8.109375 L 2.8125 -8.109375 L 2.8125 -1.71875 L 6.359375 -1.71875 L 6.359375 0 Z M 0.96875 0 "/></g></g></g><g fill="#000000" fill-opacity="1"><g transform="translate(33.114755, 11.607599)"><g><path d="M 4.28125 0.15625 C 3.582031 0.15625 2.976562 0.015625 2.46875 -0.265625 C 1.96875 -0.546875 1.578125 -0.945312 1.296875 -1.46875 C 1.023438 -1.988281 0.890625 -2.609375 0.890625 -3.328125 L 0.890625 -8.109375 L 2.734375 -8.109375 L 2.734375 -3.46875 C 2.734375 -2.21875 3.25 -1.59375 4.28125 -1.59375 C 5.3125 -1.59375 5.828125 -2.21875 5.828125 -3.46875 L 5.828125 -8.109375 L 7.671875 -8.109375 L 7.671875 -3.328125 C 7.671875 -2.609375 7.535156 -1.988281 7.265625 -1.46875 C 6.992188 -0.945312 6.601562 -0.546875 6.09375 -0.265625 C 5.59375 0.015625 4.988281 0.15625 4.28125 0.15625 Z M 4.28125 0.15625 "/></g></g></g><g fill="#000000" fill-opacity="1"><g transform="translate(44.688793, 11.607599)"><g><path d="M 3.6875 3.15625 L 3.6875 2.125 L 4.5 2.125 C 4.800781 2.125 4.953125 2.003906 4.953125 1.765625 C 4.953125 1.523438 4.800781 1.40625 4.5 1.40625 L 4.046875 1.40625 L 3.828125 1.109375 L 4.140625 0.140625 C 3.421875 0.0546875 2.785156 -0.164062 2.234375 -0.53125 C 1.691406 -0.90625 1.265625 -1.394531 0.953125 -2 C 0.648438 -2.601562 0.5 -3.285156 0.5 -4.046875 C 0.5 -4.878906 0.675781 -5.609375 1.03125 -6.234375 C 1.382812 -6.867188 1.875 -7.363281 2.5 -7.71875 C 3.132812 -8.082031 3.859375 -8.265625 4.671875 -8.265625 C 5.359375 -8.265625 5.988281 -8.132812 6.5625 -7.875 C 7.132812 -7.613281 7.613281 -7.242188 8 -6.765625 C 8.394531 -6.285156 8.671875 -5.722656 8.828125 -5.078125 L 6.921875 -5.078125 C 6.765625 -5.523438 6.488281 -5.875 6.09375 -6.125 C 5.707031 -6.382812 5.253906 -6.515625 4.734375 -6.515625 C 4.273438 -6.515625 3.863281 -6.410156 3.5 -6.203125 C 3.144531 -5.992188 2.867188 -5.703125 2.671875 -5.328125 C 2.472656 -4.960938 2.375 -4.535156 2.375 -4.046875 C 2.375 -3.566406 2.472656 -3.140625 2.671875 -2.765625 C 2.867188 -2.398438 3.144531 -2.113281 3.5 -1.90625 C 3.863281 -1.695312 4.269531 -1.59375 4.71875 -1.59375 C 5.25 -1.59375 5.71875 -1.726562 6.125 -2 C 6.53125 -2.269531 6.816406 -2.640625 6.984375 -3.109375 L 8.875 -3.109375 C 8.75 -2.503906 8.515625 -1.96875 8.171875 -1.5 C 7.835938 -1.03125 7.410156 -0.65625 6.890625 -0.375 C 6.367188 -0.09375 5.789062 0.078125 5.15625 0.140625 L 5.015625 0.5625 C 5.378906 0.625 5.65625 0.769531 5.84375 1 C 6.039062 1.238281 6.140625 1.523438 6.140625 1.859375 C 6.140625 2.242188 6.007812 2.554688 5.75 2.796875 C 5.5 3.035156 5.132812 3.15625 4.65625 3.15625 Z M 3.6875 3.15625 "/></g></g></g><g fill="#000000" fill-opacity="1"><g transform="translate(57.038104, 11.607599)"><g><path d="M 4.8125 0.15625 C 3.96875 0.15625 3.21875 -0.0195312 2.5625 -0.375 C 1.914062 -0.738281 1.410156 -1.234375 1.046875 -1.859375 C 0.679688 -2.492188 0.5 -3.222656 0.5 -4.046875 C 0.5 -4.878906 0.679688 -5.609375 1.046875 -6.234375 C 1.410156 -6.867188 1.914062 -7.363281 2.5625 -7.71875 C 3.21875 -8.082031 3.96875 -8.265625 4.8125 -8.265625 C 5.664062 -8.265625 6.414062 -8.082031 7.0625 -7.71875 C 7.707031 -7.363281 8.210938 -6.867188 8.578125 -6.234375 C 8.953125 -5.609375 9.140625 -4.878906 9.140625 -4.046875 C 9.140625 -3.222656 8.953125 -2.492188 8.578125 -1.859375 C 8.210938 -1.234375 7.707031 -0.738281 7.0625 -0.375 C 6.414062 -0.0195312 5.664062 0.15625 4.8125 0.15625 Z M 2.375 -4.046875 C 2.375 -3.566406 2.476562 -3.140625 2.6875 -2.765625 C 2.894531 -2.398438 3.179688 -2.113281 3.546875 -1.90625 C 3.910156 -1.695312 4.332031 -1.59375 4.8125 -1.59375 C 5.300781 -1.59375 5.726562 -1.695312 6.09375 -1.90625 C 6.457031 -2.113281 6.742188 -2.398438 6.953125 -2.765625 C 7.160156 -3.140625 7.265625 -3.566406 7.265625 -4.046875 C 7.265625 -4.535156 7.160156 -4.960938 6.953125 -5.328125 C 6.742188 -5.703125 6.457031 -5.992188 6.09375 -6.203125 C 5.726562 -6.410156 5.300781 -6.515625 4.8125 -6.515625 C 4.332031 -6.515625 3.910156 -6.410156 3.546875 -6.203125 C 3.179688 -5.992188 2.894531 -5.703125 2.6875 -5.328125 C 2.476562 -4.960938 2.375 -4.535156 2.375 -4.046875 Z M 2.890625 -8.96875 L 2.890625 -9.28125 C 2.890625 -9.664062 2.988281 -9.960938 3.1875 -10.171875 C 3.382812 -10.390625 3.65625 -10.5 4 -10.5 C 4.238281 -10.5 4.4375 -10.457031 4.59375 -10.375 C 4.75 -10.289062 4.882812 -10.203125 5 -10.109375 C 5.113281 -10.023438 5.226562 -9.984375 5.34375 -9.984375 C 5.519531 -9.984375 5.609375 -10.09375 5.609375 -10.3125 L 5.609375 -10.46875 L 6.765625 -10.46875 L 6.765625 -10.171875 C 6.765625 -9.773438 6.664062 -9.46875 6.46875 -9.25 C 6.269531 -9.03125 6 -8.921875 5.65625 -8.921875 C 5.414062 -8.921875 5.210938 -8.960938 5.046875 -9.046875 C 4.890625 -9.140625 4.753906 -9.226562 4.640625 -9.3125 C 4.535156 -9.40625 4.421875 -9.453125 4.296875 -9.453125 C 4.128906 -9.453125 4.046875 -9.34375 4.046875 -9.125 L 4.046875 -8.96875 Z M 2.890625 -8.96875 "/></g></g></g><g fill="#000000" fill-opacity="1"><g transform="translate(69.68827, 11.607599)"><g><path d="M 0.96875 0 L 0.96875 -8.109375 L 6.296875 -8.109375 L 6.296875 -6.546875 L 2.796875 -6.546875 L 2.796875 -4.875 L 5.984375 -4.875 L 5.984375 -3.328125 L 2.796875 -3.328125 L 2.796875 -1.5625 L 6.421875 -1.5625 L 6.421875 0 Z M 0.96875 0 "/></g></g></g><g fill="#000000" fill-opacity="1"><g transform="translate(79.711761, 11.607599)"><g><path d="M 3.796875 0.15625 C 3.117188 0.15625 2.535156 0.046875 2.046875 -0.171875 C 1.554688 -0.398438 1.175781 -0.71875 0.90625 -1.125 C 0.644531 -1.539062 0.515625 -2.023438 0.515625 -2.578125 L 2.3125 -2.578125 C 2.3125 -2.191406 2.441406 -1.890625 2.703125 -1.671875 C 2.972656 -1.460938 3.332031 -1.359375 3.78125 -1.359375 C 4.164062 -1.359375 4.46875 -1.429688 4.6875 -1.578125 C 4.914062 -1.734375 5.03125 -1.945312 5.03125 -2.21875 C 5.03125 -2.5 4.894531 -2.726562 4.625 -2.90625 C 4.351562 -3.082031 3.9375 -3.234375 3.375 -3.359375 C 2.414062 -3.554688 1.707031 -3.859375 1.25 -4.265625 C 0.800781 -4.679688 0.578125 -5.21875 0.578125 -5.875 C 0.578125 -6.613281 0.847656 -7.195312 1.390625 -7.625 C 1.929688 -8.050781 2.664062 -8.265625 3.59375 -8.265625 C 4.238281 -8.265625 4.796875 -8.15625 5.265625 -7.9375 C 5.734375 -7.71875 6.097656 -7.410156 6.359375 -7.015625 C 6.617188 -6.617188 6.75 -6.144531 6.75 -5.59375 L 4.984375 -5.59375 C 4.984375 -5.957031 4.863281 -6.242188 4.625 -6.453125 C 4.382812 -6.660156 4.050781 -6.765625 3.625 -6.765625 C 3.238281 -6.765625 2.929688 -6.6875 2.703125 -6.53125 C 2.484375 -6.382812 2.375 -6.175781 2.375 -5.90625 C 2.375 -5.65625 2.492188 -5.445312 2.734375 -5.28125 C 2.984375 -5.113281 3.421875 -4.957031 4.046875 -4.8125 C 5.054688 -4.570312 5.785156 -4.25 6.234375 -3.84375 C 6.679688 -3.4375 6.90625 -2.914062 6.90625 -2.28125 C 6.90625 -1.519531 6.628906 -0.921875 6.078125 -0.484375 C 5.523438 -0.0546875 4.765625 0.15625 3.796875 0.15625 Z M 3.796875 0.15625 "/></g></g></g><g fill="#000000" fill-opacity="1"><g transform="translate(90.140246, 11.607599)"><g/></g></g><g fill="#000000" fill-opacity="1"><g transform="translate(95.870795, 11.607599)"><g><path d="M 0.96875 0 L 0.96875 -8.109375 L 6.296875 -8.109375 L 6.296875 -6.546875 L 2.796875 -6.546875 L 2.796875 -4.875 L 5.984375 -4.875 L 5.984375 -3.328125 L 2.796875 -3.328125 L 2.796875 -1.5625 L 6.421875 -1.5625 L 6.421875 0 Z M 0.96875 0 "/></g></g></g><g fill="#000000" fill-opacity="1"><g transform="translate(105.894286, 11.607599)"><g><path d="M 0.96875 0 L 0.96875 -8.109375 L 2.53125 -8.109375 L 5.421875 -3.90625 L 8.296875 -8.109375 L 9.84375 -8.109375 L 9.84375 0 L 8.015625 0 L 8.015625 -4.875 L 6.046875 -2 L 4.765625 -2 L 2.796875 -4.890625 L 2.796875 0 Z M 0.96875 0 "/></g></g></g><g fill="#000000" fill-opacity="1"><g transform="translate(119.713148, 11.607599)"><g/></g></g><g fill="#000000" fill-opacity="1"><g transform="translate(125.443697, 11.607599)"><g><path d="M 0.96875 0 L 0.96875 -8.109375 L 4.1875 -8.109375 C 5.039062 -8.109375 5.785156 -7.9375 6.421875 -7.59375 C 7.066406 -7.25 7.566406 -6.769531 7.921875 -6.15625 C 8.273438 -5.550781 8.453125 -4.847656 8.453125 -4.046875 C 8.453125 -3.242188 8.273438 -2.535156 7.921875 -1.921875 C 7.566406 -1.316406 7.066406 -0.84375 6.421875 -0.5 C 5.785156 -0.164062 5.039062 0 4.1875 0 Z M 2.8125 -1.6875 L 4.140625 -1.6875 C 4.617188 -1.6875 5.039062 -1.785156 5.40625 -1.984375 C 5.769531 -2.179688 6.050781 -2.457031 6.25 -2.8125 C 6.457031 -3.164062 6.5625 -3.578125 6.5625 -4.046875 C 6.5625 -4.523438 6.457031 -4.941406 6.25 -5.296875 C 6.050781 -5.648438 5.765625 -5.925781 5.390625 -6.125 C 5.023438 -6.320312 4.601562 -6.421875 4.125 -6.421875 L 2.8125 -6.421875 Z M 2.8125 -1.6875 "/></g></g></g><g fill="#000000" fill-opacity="1"><g transform="translate(137.388015, 11.607599)"><g><path d="M 0.96875 0 L 0.96875 -8.109375 L 6.296875 -8.109375 L 6.296875 -6.546875 L 2.796875 -6.546875 L 2.796875 -4.875 L 5.984375 -4.875 L 5.984375 -3.328125 L 2.796875 -3.328125 L 2.796875 -1.5625 L 6.421875 -1.5625 L 6.421875 0 Z M 0.96875 0 "/></g></g></g><g fill="#000000" fill-opacity="1"><g transform="translate(147.411507, 11.607599)"><g><path d="M 3.796875 0.15625 C 3.117188 0.15625 2.535156 0.046875 2.046875 -0.171875 C 1.554688 -0.398438 1.175781 -0.71875 0.90625 -1.125 C 0.644531 -1.539062 0.515625 -2.023438 0.515625 -2.578125 L 2.3125 -2.578125 C 2.3125 -2.191406 2.441406 -1.890625 2.703125 -1.671875 C 2.972656 -1.460938 3.332031 -1.359375 3.78125 -1.359375 C 4.164062 -1.359375 4.46875 -1.429688 4.6875 -1.578125 C 4.914062 -1.734375 5.03125 -1.945312 5.03125 -2.21875 C 5.03125 -2.5 4.894531 -2.726562 4.625 -2.90625 C 4.351562 -3.082031 3.9375 -3.234375 3.375 -3.359375 C 2.414062 -3.554688 1.707031 -3.859375 1.25 -4.265625 C 0.800781 -4.679688 0.578125 -5.21875 0.578125 -5.875 C 0.578125 -6.613281 0.847656 -7.195312 1.390625 -7.625 C 1.929688 -8.050781 2.664062 -8.265625 3.59375 -8.265625 C 4.238281 -8.265625 4.796875 -8.15625 5.265625 -7.9375 C 5.734375 -7.71875 6.097656 -7.410156 6.359375 -7.015625 C 6.617188 -6.617188 6.75 -6.144531 6.75 -5.59375 L 4.984375 -5.59375 C 4.984375 -5.957031 4.863281 -6.242188 4.625 -6.453125 C 4.382812 -6.660156 4.050781 -6.765625 3.625 -6.765625 C 3.238281 -6.765625 2.929688 -6.6875 2.703125 -6.53125 C 2.484375 -6.382812 2.375 -6.175781 2.375 -5.90625 C 2.375 -5.65625 2.492188 -5.445312 2.734375 -5.28125 C 2.984375 -5.113281 3.421875 -4.957031 4.046875 -4.8125 C 5.054688 -4.570312 5.785156 -4.25 6.234375 -3.84375 C 6.679688 -3.4375 6.90625 -2.914062 6.90625 -2.28125 C 6.90625 -1.519531 6.628906 -0.921875 6.078125 -0.484375 C 5.523438 -0.0546875 4.765625 0.15625 3.796875 0.15625 Z M 3.796875 0.15625 "/></g></g></g><g fill="#000000" fill-opacity="1"><g transform="translate(157.839991, 11.607599)"><g><path d="M 0.96875 0 L 0.96875 -8.109375 L 6.296875 -8.109375 L 6.296875 -6.546875 L 2.796875 -6.546875 L 2.796875 -4.875 L 5.984375 -4.875 L 5.984375 -3.328125 L 2.796875 -3.328125 L 2.796875 -1.5625 L 6.421875 -1.5625 L 6.421875 0 Z M 0.96875 0 "/></g></g></g><g fill="#000000" fill-opacity="1"><g transform="translate(167.863482, 11.607599)"><g><path d="M 0.96875 0 L 0.96875 -8.109375 L 2.53125 -8.109375 L 6.109375 -3.171875 L 6.109375 -8.109375 L 7.9375 -8.109375 L 7.9375 0 L 6.375 0 L 2.796875 -4.96875 L 2.796875 0 Z M 0.96875 0 "/></g></g></g><g fill="#000000" fill-opacity="1"><g transform="translate(179.784659, 11.607599)"><g><path d="M 2.921875 0 L 2.921875 -6.375 L 0.34375 -6.375 L 0.34375 -8.109375 L 7.328125 -8.109375 L 7.328125 -6.375 L 4.765625 -6.375 L 4.765625 0 Z M 2.921875 0 "/></g></g></g><g fill="#000000" fill-opacity="1"><g transform="translate(190.467714, 11.607599)"><g><path d="M 4.28125 0.15625 C 3.582031 0.15625 2.976562 0.015625 2.46875 -0.265625 C 1.96875 -0.546875 1.578125 -0.945312 1.296875 -1.46875 C 1.023438 -1.988281 0.890625 -2.609375 0.890625 -3.328125 L 0.890625 -8.109375 L 2.734375 -8.109375 L 2.734375 -3.46875 C 2.734375 -2.21875 3.25 -1.59375 4.28125 -1.59375 C 5.3125 -1.59375 5.828125 -2.21875 5.828125 -3.46875 L 5.828125 -8.109375 L 7.671875 -8.109375 L 7.671875 -3.328125 C 7.671875 -2.609375 7.535156 -1.988281 7.265625 -1.46875 C 6.992188 -0.945312 6.601562 -0.546875 6.09375 -0.265625 C 5.59375 0.015625 4.988281 0.15625 4.28125 0.15625 Z M 4.28125 0.15625 "/></g></g></g><g fill="#000000" fill-opacity="1"><g transform="translate(202.041752, 11.607599)"><g><path d="M 0.96875 0 L 0.96875 -8.109375 L 4.140625 -8.109375 C 4.796875 -8.109375 5.363281 -7.988281 5.84375 -7.75 C 6.320312 -7.507812 6.691406 -7.164062 6.953125 -6.71875 C 7.222656 -6.28125 7.359375 -5.765625 7.359375 -5.171875 C 7.359375 -4.585938 7.222656 -4.070312 6.953125 -3.625 C 6.691406 -3.1875 6.320312 -2.847656 5.84375 -2.609375 C 5.363281 -2.367188 4.796875 -2.25 4.140625 -2.25 L 2.8125 -2.25 L 2.8125 0 Z M 2.796875 -3.84375 L 4 -3.84375 C 4.476562 -3.84375 4.84375 -3.957031 5.09375 -4.1875 C 5.351562 -4.414062 5.484375 -4.738281 5.484375 -5.15625 C 5.484375 -5.582031 5.351562 -5.910156 5.09375 -6.140625 C 4.84375 -6.378906 4.476562 -6.5 4 -6.5 L 2.796875 -6.5 Z M 2.796875 -3.84375 "/></g></g></g><g fill="#000000" fill-opacity="1"><g transform="translate(212.74795, 11.607599)"><g><path d="M 0.96875 0 L 0.96875 -8.109375 L 2.8125 -8.109375 L 2.8125 0 Z M 0.96875 0 "/></g></g></g><g fill="#000000" fill-opacity="1"><g transform="translate(219.543056, 11.607599)"><g><path d="M 0.96875 0 L 0.96875 -8.109375 L 2.53125 -8.109375 L 5.421875 -3.90625 L 8.296875 -8.109375 L 9.84375 -8.109375 L 9.84375 0 L 8.015625 0 L 8.015625 -4.875 L 6.046875 -2 L 4.765625 -2 L 2.796875 -4.890625 L 2.796875 0 Z M 0.96875 0 "/></g></g></g><g fill="#000000" fill-opacity="1"><g transform="translate(233.361905, 11.607599)"><g><path d="M 0.96875 0 L 0.96875 -8.109375 L 6.296875 -8.109375 L 6.296875 -6.546875 L 2.796875 -6.546875 L 2.796875 -4.875 L 5.984375 -4.875 L 5.984375 -3.328125 L 2.796875 -3.328125 L 2.796875 -1.5625 L 6.421875 -1.5625 L 6.421875 0 Z M 0.96875 0 "/></g></g></g><g fill="#000000" fill-opacity="1"><g transform="translate(243.385409, 11.607599)"><g><path d="M 0.96875 0 L 0.96875 -8.109375 L 2.53125 -8.109375 L 6.109375 -3.171875 L 6.109375 -8.109375 L 7.9375 -8.109375 L 7.9375 0 L 6.375 0 L 2.796875 -4.96875 L 2.796875 0 Z M 0.96875 0 "/></g></g></g><g fill="#000000" fill-opacity="1"><g transform="translate(255.306585, 11.607599)"><g><path d="M 2.921875 0 L 2.921875 -6.375 L 0.34375 -6.375 L 0.34375 -8.109375 L 7.328125 -8.109375 L 7.328125 -6.375 L 4.765625 -6.375 L 4.765625 0 Z M 2.921875 0 "/></g></g></g><g fill="#000000" fill-opacity="1"><g transform="translate(265.989653, 11.607599)"><g><path d="M 4.8125 0.15625 C 3.96875 0.15625 3.21875 -0.0195312 2.5625 -0.375 C 1.914062 -0.738281 1.410156 -1.234375 1.046875 -1.859375 C 0.679688 -2.492188 0.5 -3.222656 0.5 -4.046875 C 0.5 -4.878906 0.679688 -5.609375 1.046875 -6.234375 C 1.410156 -6.867188 1.914062 -7.363281 2.5625 -7.71875 C 3.21875 -8.082031 3.96875 -8.265625 4.8125 -8.265625 C 5.664062 -8.265625 6.414062 -8.082031 7.0625 -7.71875 C 7.707031 -7.363281 8.210938 -6.867188 8.578125 -6.234375 C 8.953125 -5.609375 9.140625 -4.878906 9.140625 -4.046875 C 9.140625 -3.222656 8.953125 -2.492188 8.578125 -1.859375 C 8.210938 -1.234375 7.707031 -0.738281 7.0625 -0.375 C 6.414062 -0.0195312 5.664062 0.15625 4.8125 0.15625 Z M 2.375 -4.046875 C 2.375 -3.566406 2.476562 -3.140625 2.6875 -2.765625 C 2.894531 -2.398438 3.179688 -2.113281 3.546875 -1.90625 C 3.910156 -1.695312 4.332031 -1.59375 4.8125 -1.59375 C 5.300781 -1.59375 5.726562 -1.695312 6.09375 -1.90625 C 6.457031 -2.113281 6.742188 -2.398438 6.953125 -2.765625 C 7.160156 -3.140625 7.265625 -3.566406 7.265625 -4.046875 C 7.265625 -4.535156 7.160156 -4.960938 6.953125 -5.328125 C 6.742188 -5.703125 6.457031 -5.992188 6.09375 -6.203125 C 5.726562 -6.410156 5.300781 -6.515625 4.8125 -6.515625 C 4.332031 -6.515625 3.910156 -6.410156 3.546875 -6.203125 C 3.179688 -5.992188 2.894531 -5.703125 2.6875 -5.328125 C 2.476562 -4.960938 2.375 -4.535156 2.375 -4.046875 Z M 2.375 -4.046875 "/></g></g></g></g></g></svg>